<svg xmlns="http://www.w3.org/2000/svg" viewBox="0 0 512 512">
  <circle cx="256" cy="256" r="256" fill="#3498db"/>
  <path d="M256 112c-79.5 0-144 64.5-144 144s64.5 144 144 144 144-64.5 144-144-64.5-144-144-144zm0 240c-52.8 0-96-43.2-96-96s43.2-96 96-96 96 43.2 96 96-43.2 96-96 96z" fill="white"/>
  <path d="M256 192c-35.3 0-64 28.7-64 64s28.7 64 64 64 64-28.7 64-64-28.7-64-64-64zm0 96c-17.6 0-32-14.4-32-32s14.4-32 32-32 32 14.4 32 32-14.4 32-32 32z" fill="white"/>
  <path d="M288 144h-64v-48h64v48zm-32 224h-32v48h32v-48zm96-160h48v32h-48v-32zm-224 32h-48v-32h48v32z" fill="white"/>
</svg>